<svg xmlns="http://www.w3.org/2000/svg" viewBox="0 0 70.7 40.17"><path d="M319.61,432.73l.25,7.67c-.44-.11-.88-.22-1.31-.29a105.92,105.92,0,0,0-21-2.12,66.62,66.62,0,0,0-19,2.6l-.22-7.06a6.29,6.29,0,0,1,.87-3.29l-13.41-8.11L263.9,421l-.08,0,34.51-20.55,35,19.19-14.77,9.84A6.07,6.07,0,0,1,319.61,432.73Z" transform="translate(-262.65 -400.41)" fill="#182437"/><rect x="264" y="420.9" width="1.84" height="8.95" transform="translate(-270.97 -395.12) rotate(-1.13)" fill="#182437"/><path d="M267,430.45a1.93,1.93,0,1,1-2-1.88A1.94,1.94,0,0,1,267,430.45Z" transform="translate(-262.65 -400.41)" fill="#182437"/><polygon points="2.38 30.28 0 34.59 4.92 34.49 2.38 30.28" fill="#182437"/></svg>